<?xml version="1.0"?>
<svg xmlns="http://www.w3.org/2000/svg" width="50" height="50" viewBox="0 0 50 50">
    <path style="text-indent:0;text-align:start;line-height:normal;text-transform:none;block-progression:tb;-inkscape-font-specification:Bitstream Vera Sans" d="M 42.03125 0 C 40.92668 0 40.03125 0.8954305 40.03125 2 C 40.03125 3.1045695 40.92668 4 42.03125 4 C 43.135819 4 44.03125 3.1045695 44.03125 2 C 44.03125 0.8954305 43.135819 0 42.03125 0 z M 29 1 C 27.895431 1 27 1.8954305 27 3 C 27 4.1045695 27.895431 5 29 5 C 30.104569 5 31 4.1045695 31 3 C 31 1.8954305 30.104569 1 29 1 z M 38 4 C 36.895431 4 36 4.8954305 36 6 C 36 7.1045695 36.895431 8 38 8 C 39.104569 8 40 7.1045695 40 6 C 40 4.8954305 39.104569 4 38 4 z M 24.46875 6.125 A 2.0002 2.0002 0 0 0 23.09375 6.75 L 4.21875 25.625 C -1.3521408 31.195891 -1.352377 40.242531 4.21875 45.8125 C 9.7896215 51.382214 18.836183 51.383725 24.40625 45.8125 C 26.10166 44.116091 38.5625 31.65625 38.5625 31.65625 A 2.0002 2.0002 0 1 0 35.75 28.8125 C 35.75 28.8125 23.29434 41.267159 21.59375 42.96875 C 17.539817 47.023525 11.117629 47.023036 7.0625 42.96875 C 3.007627 38.914719 3.0073908 32.492609 7.0625 28.4375 L 25.90625 9.5625 A 2.0002 2.0002 0 0 0 24.46875 6.125 z M 34 8 C 32.895431 8 32 8.8954305 32 10 C 32 11.104569 32.895431 12 34 12 C 35.104569 12 36 11.104569 36 10 C 36 8.8954305 35.104569 8 34 8 z M 45 8.375 C 43.895431 8.375 43 9.2704305 43 10.375 C 43 11.479569 43.895431 12.375 45 12.375 C 46.104569 12.375 47 11.479569 47 10.375 C 47 9.2704305 46.104569 8.375 45 8.375 z M 29.96875 11.96875 A 2.0002 2.0002 0 0 0 28.59375 12.59375 L 22.59375 18.59375 A 2.0002 2.0002 0 1 0 25.40625 21.40625 L 31.40625 15.40625 A 2.0002 2.0002 0 0 0 29.96875 11.96875 z M 41 13 C 39.895431 13 39 13.895431 39 15 C 39 16.104569 39.895431 17 41 17 C 42.104569 17 43 16.104569 43 15 C 43 13.895431 42.104569 13 41 13 z M 36.96875 16.96875 A 2.0002 2.0002 0 0 0 35.59375 17.59375 L 26.59375 26.59375 A 2.0002 2.0002 0 1 0 29.40625 29.40625 L 38.40625 20.40625 A 2.0002 2.0002 0 0 0 36.96875 16.96875 z M 42 24 C 40.895431 24 40 24.895431 40 26 C 40 27.104569 40.895431 28 42 28 C 43.104569 28 44 27.104569 44 26 C 44 24.895431 43.104569 24 42 24 z M 17.25 27.125 C 14.026715 27.169865 10.588062 29.412562 9.0625 31 C 6.3105 33.752 6.3105 38.21575 9.0625 40.96875 C 9.3295 40.79075 9.67625 40.6875 10.03125 40.6875 C 11.18525 40.6875 12.16575 41.56475 12.34375 42.71875 C 14.65275 43.34075 17.22875 42.74 19.09375 40.875 C 19.98175 39.987 20.85725 38.832 21.65625 37.5 C 21.30125 36.968 21.03125 36.24225 21.03125 35.53125 C 21.03025 34.11025 21.846 32.96575 23 32.34375 C 22.911 31.01175 22.4665 29.7535 21.3125 28.6875 C 20.147188 27.522188 18.715129 27.104607 17.25 27.125 z M 15.125 30.75 C 16.463094 30.818391 17.68525 31.65175 18.15625 32.96875 C 18.65725 34.46575 18.16725 35.991 16.90625 36.875 C 16.73225 36.997 16.54175 37.0625 16.34375 37.0625 C 16.02875 37.0625 15.695 36.93425 15.5 36.65625 C 15.183 36.20425 15.297 35.568 15.75 35.25 C 16.284 34.876 16.49425 34.263 16.28125 33.625 C 16.03625 32.939 15.1775 32.58075 14.4375 32.84375 C 13.9175 33.03075 13.34125 32.73775 13.15625 32.21875 C 12.97025 31.69775 13.26025 31.15375 13.78125 30.96875 C 14.22925 30.809 14.678969 30.727203 15.125 30.75 z"/>
</svg>
